<svg width="40" height="40" viewBox="0 0 40 40" fill="none" xmlns="http://www.w3.org/2000/svg">
<path d="M32.2262 21.0536V26.262H7.22619V9.5953H17.6429V7.51196H7.22619C6.67366 7.51196 6.14376 7.73146 5.75305 8.12216C5.36235 8.51286 5.14286 9.04276 5.14286 9.5953V26.262C5.14286 26.8145 5.36235 27.3444 5.75305 27.7351C6.14376 28.1258 6.67366 28.3453 7.22619 28.3453H15.5595V32.512H11.3929V34.5953H28.0595V32.512H23.8929V28.3453H32.2262C32.7787 28.3453 33.3086 28.1258 33.6993 27.7351C34.09 27.3444 34.3095 26.8145 34.3095 26.262V21.0536H32.2262ZM21.8095 32.512H17.6429V28.3453H21.8095V32.512Z" fill="white"/>
<path d="M34.3093 13.7619V11.6786H32.1208C31.9865 11.0265 31.7276 10.4065 31.3583 9.85255L32.9104 8.30046L31.4375 6.82755L29.8854 8.37963C29.3314 8.01037 28.7114 7.75147 28.0593 7.61713V5.42859H25.976V7.61713C25.3239 7.75147 24.7039 8.01037 24.15 8.37963L22.5979 6.82755L21.125 8.30046L22.677 9.85255C22.3078 10.4065 22.0489 11.0265 21.9145 11.6786H19.726V13.7619H21.9145C22.0489 14.414 22.3078 15.034 22.677 15.588L21.125 17.14L22.5979 18.613L24.15 17.0609C24.7039 17.4301 25.3239 17.689 25.976 17.8234V20.0119H28.0593V17.8234C28.7114 17.689 29.3314 17.4301 29.8854 17.0609L31.4375 18.613L32.9104 17.14L31.3583 15.588C31.7276 15.034 31.9865 14.414 32.1208 13.7619H34.3093ZM27.0177 15.8453C26.3996 15.8453 25.7954 15.662 25.2815 15.3186C24.7676 14.9752 24.3671 14.4872 24.1305 13.9161C23.894 13.3451 23.8321 12.7168 23.9527 12.1106C24.0733 11.5044 24.3709 10.9476 24.808 10.5105C25.245 10.0735 25.8018 9.77588 26.408 9.6553C27.0142 9.53472 27.6425 9.59661 28.2136 9.83313C28.7846 10.0697 29.2726 10.4702 29.616 10.9841C29.9594 11.498 30.1427 12.1022 30.1427 12.7203C30.1418 13.5488 29.8123 14.3432 29.2265 14.9291C28.6406 15.5149 27.8462 15.8444 27.0177 15.8453Z" fill="white"/>
</svg>
