<svg width="40" height="40" viewBox="0 0 40 40" fill="none" xmlns="http://www.w3.org/2000/svg">
<path d="M20 14C18.4087 14 16.8826 14.6321 15.7574 15.7574C14.6321 16.8826 14 18.4087 14 20C14 21.5913 14.6321 23.1174 15.7574 24.2426C16.8826 25.3679 18.4087 26 20 26C21.5913 26 23.1174 25.3679 24.2426 24.2426C25.3679 23.1174 26 21.5913 26 20C26 18.4087 25.3679 16.8826 24.2426 15.7574C23.1174 14.6321 21.5913 14 20 14ZM16 20C16 18.9391 16.4214 17.9217 17.1716 17.1716C17.9217 16.4214 18.9391 16 20 16C21.0609 16 22.0783 16.4214 22.8284 17.1716C23.5786 17.9217 24 18.9391 24 20C24 21.0609 23.5786 22.0783 22.8284 22.8284C22.0783 23.5786 21.0609 24 20 24C18.9391 24 17.9217 23.5786 17.1716 22.8284C16.4214 22.0783 16 21.0609 16 20ZM15 4C15.2652 4 15.5196 4.10536 15.7071 4.29289C15.8946 4.48043 16 4.73478 16 5V8H19V5C19 4.73478 19.1054 4.48043 19.2929 4.29289C19.4804 4.10536 19.7348 4 20 4C20.2652 4 20.5196 4.10536 20.7071 4.29289C20.8946 4.48043 21 4.73478 21 5V8H24V5C24 4.73478 24.1054 4.48043 24.2929 4.29289C24.4804 4.10536 24.7348 4 25 4C25.2652 4 25.5196 4.10536 25.7071 4.29289C25.8946 4.48043 26 4.73478 26 5V8H27C28.3261 8 29.5979 8.52678 30.5355 9.46447C31.4732 10.4021 32 11.6739 32 13V14H35C35.2652 14 35.5196 14.1054 35.7071 14.2929C35.8946 14.4804 36 14.7348 36 15C36 15.2652 35.8946 15.5196 35.7071 15.7071C35.5196 15.8946 35.2652 16 35 16H32V19H35C35.2652 19 35.5196 19.1054 35.7071 19.2929C35.8946 19.4804 36 19.7348 36 20C36 20.2652 35.8946 20.5196 35.7071 20.7071C35.5196 20.8946 35.2652 21 35 21H32V24H35C35.2652 24 35.5196 24.1054 35.7071 24.2929C35.8946 24.4804 36 24.7348 36 25C36 25.2652 35.8946 25.5196 35.7071 25.7071C35.5196 25.8946 35.2652 26 35 26H32V27C32 28.3261 31.4732 29.5979 30.5355 30.5355C29.5979 31.4732 28.3261 32 27 32H26V35C26 35.2652 25.8946 35.5196 25.7071 35.7071C25.5196 35.8946 25.2652 36 25 36C24.7348 36 24.4804 35.8946 24.2929 35.7071C24.1054 35.5196 24 35.2652 24 35V32H21V35C21 35.2652 20.8946 35.5196 20.7071 35.7071C20.5196 35.8946 20.2652 36 20 36C19.7348 36 19.4804 35.8946 19.2929 35.7071C19.1054 35.5196 19 35.2652 19 35V32H16V35C16 35.2652 15.8946 35.5196 15.7071 35.7071C15.5196 35.8946 15.2652 36 15 36C14.7348 36 14.4804 35.8946 14.2929 35.7071C14.1054 35.5196 14 35.2652 14 35V32H13C11.6739 32 10.4021 31.4732 9.46447 30.5355C8.52678 29.5979 8 28.3261 8 27V26H5C4.73478 26 4.48043 25.8946 4.29289 25.7071C4.10536 25.5196 4 25.2652 4 25C4 24.7348 4.10536 24.4804 4.29289 24.2929C4.48043 24.1054 4.73478 24 5 24H8V21H5C4.73478 21 4.48043 20.8946 4.29289 20.7071C4.10536 20.5196 4 20.2652 4 20C4 19.7348 4.10536 19.4804 4.29289 19.2929C4.48043 19.1054 4.73478 19 5 19H8V16H5C4.73478 16 4.48043 15.8946 4.29289 15.7071C4.10536 15.5196 4 15.2652 4 15C4 14.7348 4.10536 14.4804 4.29289 14.2929C4.48043 14.1054 4.73478 14 5 14H8V13C8 11.6739 8.52678 10.4021 9.46447 9.46447C10.4021 8.52678 11.6739 8 13 8H14V5C14 4.73478 14.1054 4.48043 14.2929 4.29289C14.4804 4.10536 14.7348 4 15 4ZM30 13C30 12.2044 29.6839 11.4413 29.1213 10.8787C28.5587 10.3161 27.7956 10 27 10H13C12.2044 10 11.4413 10.3161 10.8787 10.8787C10.3161 11.4413 10 12.2044 10 13V27C10 27.7956 10.3161 28.5587 10.8787 29.1213C11.4413 29.6839 12.2044 30 13 30H27C27.7956 30 28.5587 29.6839 29.1213 29.1213C29.6839 28.5587 30 27.7956 30 27V13Z"/>
</svg>
