<svg width="40" height="40" viewBox="0 0 40 40" fill="none" xmlns="http://www.w3.org/2000/svg">
<path d="M33.3929 7.28678C33.0245 7.04845 32.6032 6.90427 32.166 6.86691C31.7288 6.82954 31.2892 6.90014 30.8857 7.07249L17.6643 12.2796C17.3513 12.407 17.0165 12.4725 16.6786 12.4725H8.21428C7.50388 12.4725 6.82258 12.7547 6.32025 13.257C5.81792 13.7594 5.53571 14.4407 5.53571 15.1511V15.3653H2.85714V21.7939H5.53571V22.0725C5.5525 22.7717 5.8421 23.4366 6.34262 23.9251C6.84314 24.4136 7.51488 24.687 8.21428 24.6868L11.4286 31.5011C11.6462 31.9599 11.9889 32.3481 12.4172 32.621C12.8455 32.8939 13.3421 33.0405 13.85 33.0439H15.2C15.9067 33.0383 16.5825 32.7536 17.0802 32.2518C17.5779 31.7501 17.8572 31.0721 17.8571 30.3653V24.9439L30.8857 30.1511C31.2062 30.2786 31.548 30.344 31.8929 30.3439C32.4279 30.3353 32.949 30.1715 33.3929 29.8725C33.7453 29.6345 34.036 29.316 34.241 28.9434C34.4459 28.5708 34.5592 28.1547 34.5714 27.7296V9.49392C34.5695 9.05788 34.4611 8.62892 34.2557 8.24428C34.0503 7.85964 33.7541 7.53096 33.3929 7.28678ZM15.1786 15.1511V22.0725H8.21428V15.1511H15.1786ZM15.1786 30.3653H13.8286L11.1929 24.6868H15.1786V30.3653ZM18.65 22.3939C18.3956 22.2639 18.1303 22.1563 17.8571 22.0725V15.0011C18.1277 14.9452 18.3929 14.8664 18.65 14.7653L31.8929 9.49392V27.6653L18.65 22.3939ZM34.6357 15.9011V21.2582C35.3461 21.2582 36.0274 20.976 36.5297 20.4737C37.0321 19.9713 37.3143 19.29 37.3143 18.5796C37.3143 17.8692 37.0321 17.1879 36.5297 16.6856C36.0274 16.1833 35.3461 15.9011 34.6357 15.9011Z" fill="white"/>
</svg>
